# xmcd CD database file
#
# Track frame offsets:
#	150
#	38303
#	67525
#	92975
#	125232
#	158275
#	187212
#	221803
#	228644
#	273251
#	301974
#
# Disc length: 4295 seconds
#
# Revision: 1
# Processed by: cddbd v1.5.1PL0 Copyright (c) Steve Scherf et al.
# Submitted via: CDex 1.51
#
DISCID=9110c50b
DTITLE=Full House - Champagne Taste
DYEAR=2002
DGENRE=Jazz
TTITLE0=Afreaka
TTITLE1=Pound Cake
TTITLE2=P.S.
TTITLE3=Mamacita
TTITLE4=Reasons
TTITLE5=Champagne Taste
TTITLE6=Love For Sale
TTITLE7=Ootw
TTITLE8=Out Of This World
TTITLE9=Howayou
TTITLE10=Voodoo
EXTD=YEAR: 2002
EXTT0=
EXTT1=
EXTT2=
EXTT3=
EXTT4=
EXTT5=
EXTT6=
EXTT7=
EXTT8=
EXTT9=
EXTT10=
PLAYORDER=
